<?xml version="1.0" encoding="utf-8"?>
<!-- Generator: Adobe Illustrator 19.1.0, SVG Export Plug-In . SVG Version: 6.00 Build 0)  -->
<svg version="1.1" id="Calque_1" xmlns="http://www.w3.org/2000/svg" xmlns:xlink="http://www.w3.org/1999/xlink" x="0px" y="0px"
	 viewBox="0 0 707.1 74.1" style="enable-background:new 0 0 707.1 74.1;" xml:space="preserve">
<style type="text/css">
	.st0{fill:#FFFFFF;}
</style>
<g>
	<g>
		<path class="st0" d="M154.5,73.8h-6.2v-12h6.2c5.1,0,7.2,2.3,7.2,6C161.7,71.8,159.2,73.8,154.5,73.8z M154.4,63.7h-4V72h4
			c3.4,0,5-1.2,5-4.1C159.4,65,158,63.7,154.4,63.7z"/>
		<path class="st0" d="M171.1,61.8h2.2v12h-2.2V61.8z"/>
		<path class="st0" d="M195.4,73.2c-1.3,0.5-3.2,0.9-5,0.9c-5.4,0-7.7-2.3-7.7-6.2c0-4,2.4-6.2,7.8-6.2c1.6,0,3.4,0.3,4.7,0.7
			l-0.2,1.8c-1.2-0.4-2.7-0.7-4.3-0.7c-3.9,0-5.6,1.3-5.6,4.4c0,3,1.5,4.4,5.4,4.4c1.2,0,2.3-0.2,3.2-0.5v-4.1h1.9V73.2z"/>
		<path class="st0" d="M205,61.8h2.2v12H205V61.8z"/>
		<path class="st0" d="M223.2,63.7v10.1H221V63.7h-5.2l0-1.9h12.5l0,1.9H223.2z"/>
		<path class="st0" d="M245.3,71.1h-8.1l-1.4,2.7h-2.4l6.7-12h2.4l6.7,12h-2.5L245.3,71.1z M240.7,64.4l-2.6,5h6.4l-2.6-5l-0.6-1.2
			h0L240.7,64.4z"/>
		<path class="st0" d="M268.3,72l-0.1,1.9h-10.5v-12h2.2V72H268.3z"/>
		<path class="st0" d="M300.2,64.1c-1-0.3-2.3-0.6-3.9-0.6c-3.8,0-5.3,1.4-5.3,4.4c0,3.1,1.5,4.5,5.4,4.5c1.4,0,2.7-0.3,3.8-0.8
			l0.3,1.6c-1.2,0.5-2.8,1-4.4,1c-5.1,0-7.4-2.3-7.4-6.3c0-3.7,2.3-6.2,7.6-6.2c1.5,0,3.1,0.3,4.1,0.7L300.2,64.1z"/>
		<path class="st0" d="M317.4,68.7L317.4,68.7l0.8,1l3.6,4.1h-2.7l-3.7-4.7h-4v4.7h-2.2v-12h6.2c3.5,0,5.2,1.4,5.2,3.6
			C320.7,67.1,319.5,68.5,317.4,68.7z M315.5,63.5h-4v4.1h3.8c2.2,0,3.1-0.7,3.1-2.1C318.4,64.2,317.6,63.5,315.5,63.5z"/>
		<path class="st0" d="M341.6,72l0,1.8h-11.2v-12h10.8l0,1.8h-8.7v3.2h7.4v1.6h-7.4V72H341.6z"/>
		<path class="st0" d="M361.5,71.1h-8.1l-1.4,2.7h-2.4l6.7-12h2.4l6.7,12h-2.5L361.5,71.1z M356.9,64.4l-2.6,5h6.4l-2.6-5l-0.6-1.2
			h0L356.9,64.4z"/>
		<path class="st0" d="M377.7,63.7v10.1h-2.2V63.7h-5.2l0-1.9h12.5l0,1.9H377.7z"/>
		<path class="st0" d="M391.6,61.8h2.2v12h-2.2V61.8z"/>
		<path class="st0" d="M417.6,61.8l-6.4,12h-2.3l-6.4-12h2.4l4.6,9l0.6,1.2h0l0.6-1.2l4.6-9H417.6z"/>
		<path class="st0" d="M437.5,72l0,1.8h-11.2v-12H437l0,1.8h-8.7v3.2h7.4v1.6h-7.4V72H437.5z"/>
		<path class="st0" d="M469.4,71.1h-8.1l-1.4,2.7h-2.4l6.7-12h2.4l6.7,12h-2.5L469.4,71.1z M464.8,64.4l-2.6,5h6.4l-2.6-5l-0.6-1.2
			h0L464.8,64.4z"/>
		<path class="st0" d="M493.1,73.2c-1.3,0.5-3.2,0.9-5,0.9c-5.4,0-7.7-2.3-7.7-6.2c0-4,2.4-6.2,7.8-6.2c1.6,0,3.4,0.3,4.7,0.7
			l-0.2,1.8c-1.2-0.4-2.7-0.7-4.3-0.7c-3.9,0-5.6,1.3-5.6,4.4c0,3,1.5,4.4,5.4,4.4c1.2,0,2.3-0.2,3.2-0.5v-4.1h1.9V73.2z"/>
		<path class="st0" d="M513.8,72l0,1.8h-11.2v-12h10.8l0,1.8h-8.7v3.2h7.4v1.6h-7.4V72H513.8z"/>
		<path class="st0" d="M534.3,73.8l-8.7-8.4l-0.9-0.9l0,0l0,1.3v8h-2v-12h1.9l8.3,8.1l0.9,0.9l0,0l0-1.3l0-7.7h2v12H534.3z"/>
		<path class="st0" d="M556.4,64.1c-1-0.3-2.3-0.6-3.9-0.6c-3.8,0-5.3,1.4-5.3,4.4c0,3.1,1.5,4.5,5.4,4.5c1.4,0,2.7-0.3,3.8-0.8
			l0.3,1.6c-1.2,0.5-2.8,1-4.4,1c-5.1,0-7.4-2.3-7.4-6.3c0-3.7,2.3-6.2,7.6-6.2c1.5,0,3.1,0.3,4.1,0.7L556.4,64.1z"/>
		<path class="st0" d="M567.1,61.8l4.8,6.1l4.8-6.1h2.4l-6.2,7.8v4.2h-2.2v-4.2l-6.3-7.8H567.1z"/>
	</g>
	<polygon class="st0" points="87.3,7.5 80.2,0.1 46.5,31.9 0,31.9 0,41.5 46.7,41.5 80.2,73.3 87.3,65.7 56.1,36.5 	"/>
	<polygon class="st0" points="296.5,37.4 267.7,37.4 267.7,1.9 257.1,1.9 257.1,46.3 296.3,46.3 	"/>
	<polygon class="st0" points="417.4,37.4 388.6,37.4 388.6,1.9 377.9,1.9 377.9,46.3 417.1,46.3 	"/>
	<rect x="147" y="1.9" class="st0" width="10.8" height="44.4"/>
	<path class="st0" d="M194.2,38.5c-12.9,0-17.6-4.2-17.6-14.5c0-9.8,4.5-14.1,17.3-14.1c5.4,0,10.1,0.9,13.7,2.1l1.2-8.5
		c-3.8-1.3-9.6-2.4-15-2.4c-19.8,0-28.4,9.4-28.4,23c0,14.6,9,23.2,27.5,23.2c5.7,0,11.7-1.5,16.1-3.4l-1.4-7.8
		C203.9,37.5,199.3,38.5,194.2,38.5z"/>
	<polygon class="st0" points="112.5,0.1 73.9,36.5 112.5,73.3 119.6,65.7 88.4,36.5 119.6,7.5 	"/>
	<rect x="218.5" y="1.9" class="st0" width="10.8" height="44.4"/>
	<polygon class="st0" points="520.3,26.9 520.4,31.6 520.3,31.7 516.9,28.3 489.8,1.9 480.9,1.9 480.9,46.3 490.6,46.3 490.6,20.3 
		490.5,15.5 490.7,15.4 494,18.8 522.9,46.3 530,46.3 530,1.9 520.3,1.9 	"/>
	<polygon class="st0" points="642.1,7.5 673.4,36.5 642.1,65.8 649.3,73.4 688,36.5 649.3,0 	"/>
	<path class="st0" d="M333.4,1.9h-11.9l-23.8,44.4h11.5l4.4-9H341l4.3,9h12.1L333.4,1.9z M317.5,29.4l7.9-16l2-4.4h0.2l2,4.4l7.7,16
		H317.5z"/>
	<polygon class="st0" points="616.9,0 609.8,7.5 641,36.5 609.8,65.8 616.9,73.4 655.6,36.5 	"/>
	<polygon class="st0" points="551.7,27.2 577.5,27.2 577.5,19.9 551.7,19.9 551.7,10.6 582.1,10.6 581.9,1.9 541.1,1.9 541.1,46.3 
		583.1,46.3 583.4,37.8 551.7,37.8 	"/>
	<rect x="697.5" y="31.5" class="st0" width="9.6" height="9.6"/>
	<path class="st0" d="M460.3,26.5c0,7.9-4.5,11.9-14,11.9c-9.6,0-14.3-4-14.3-11.9V1.9h-10.6v24.5c0,14.1,9,20.8,24.9,20.8
		c15.9,0,24.6-6.6,24.6-20.8V1.9h-10.6V26.5z"/>
</g>
</svg>
