<!-- Generated by IcoMoon.io -->
<svg version="1.1" xmlns="http://www.w3.org/2000/svg" width="308" height="32" viewBox="0 0 308 32">
<title>logo-ill</title>
<path fill="#FFFFFF" d="M37.983 3.281l-3.127-3.242-14.668 13.858h-20.188v4.13h20.343l14.514 13.858 3.127-3.281-13.549-12.7z"></path>
<path fill="#FFFFFF" d="M128.965 16.251h-12.545v-15.402h-4.632v19.3h17.062z"></path>
<path fill="#FFFFFF" d="M168.994 0.849h-4.632v19.3h17.062l0.077-3.899h-12.507z"></path>
<path fill="#FFFFFF" d="M63.923 0.849h4.709v19.3h-4.709v-19.3z"></path>
<path fill="#FFFFFF" d="M90.326 15.633c-1.66 0.656-3.628 1.119-5.829 1.119-5.597 0-7.643-1.814-7.643-6.292 0-4.246 1.969-6.138 7.527-6.138 2.355 0 4.362 0.425 5.945 0.888l0.502-3.706c-1.66-0.579-4.169-1.042-6.524-1.042-8.608 0-12.352 4.092-12.352 9.998 0 6.331 3.937 10.075 11.966 10.075 2.47 0 5.057-0.656 6.987-1.505l-0.579-3.397z"></path>
<path fill="#FFFFFF" d="M48.907 0.039l-16.791 15.865 16.791 15.981 3.088-3.281-13.549-12.7 13.549-12.622z"></path>
<path fill="#FFFFFF" d="M95.035 0.849h4.709v19.3h-4.709v-19.3z"></path>
<path fill="#FFFFFF" d="M226.239 11.696l0.077 2.046-0.077 0.077-1.467-1.505-11.735-11.464h-3.937v19.3h4.246v-11.349l-0.039-2.084h0.077l1.467 1.467 12.545 11.966h3.088v-19.3h-4.246z"></path>
<path fill="#FFFFFF" d="M279.276 3.242l13.549 12.661-13.549 12.7 3.088 3.32 16.83-16.019-16.83-15.903z"></path>
<path fill="#FFFFFF" d="M139.85 0.849l-10.345 19.3h4.98l1.891-3.899h11.928l1.891 3.899h5.25l-10.422-19.3h-5.173zM138.075 12.777l3.435-6.987 0.888-1.891h0.077l0.849 1.891 3.358 6.987h-8.608z"></path>
<path fill="#FFFFFF" d="M268.314 0l-3.127 3.242 13.587 12.661-13.587 12.7 3.127 3.32 16.791-16.019z"></path>
<path fill="#FFFFFF" d="M253.723 16.444h-13.78v-4.593h11.233v-3.204h-11.233v-4.053h13.201l-0.077-3.744h-17.756v19.3h18.297z"></path>
<path fill="#FFFFFF" d="M303.325 13.703h4.169v4.169h-4.169v-4.169z"></path>
<path fill="#FFFFFF" d="M204.777 11.503v-10.654h-4.594v10.692c0 3.435-1.969 5.173-6.099 5.173-4.207 0-6.215-1.737-6.215-5.172v-10.692h-4.632v10.692c0 6.137 3.899 9.033 10.847 9.033 6.948-0.039 10.692-2.895 10.692-9.071z"></path>
<path fill="#FFFFFF" d="M67.127 26.094l-3.088 5.79h1.505l0.579-1.158h3.59l0.579 1.158h1.583l-3.127-5.79h-1.621zM66.586 29.684l1.042-2.084 0.27-0.579h0.039l0.27 0.579 1.004 2.084h-2.625z"></path>
<path fill="#FFFFFF" d="M82.065 30.726c-0.347 0.116-0.733 0.154-1.197 0.154-1.698 0-2.277-0.579-2.277-1.891 0-1.351 0.656-1.853 2.393-1.853 0.733 0 1.428 0.116 2.046 0.309l0.154-1.119c-0.618-0.193-1.467-0.309-2.239-0.309-2.663 0-3.783 1.158-3.783 3.011s1.119 3.011 3.783 3.011c0.849 0 1.776-0.154 2.393-0.386v-2.779h-1.197v1.853z"></path>
<path fill="#FFFFFF" d="M91.175 29.414h3.358v-0.965h-3.358v-1.235h3.937v-1.119h-5.327v5.79h5.481l0.039-1.119h-4.13z"></path>
<path fill="#FFFFFF" d="M106.692 29.375l0.039 0.618h-0.039l-0.425-0.463-3.551-3.435h-1.158v5.79h1.274v-4.014l0.463 0.425 3.744 3.59h0.926v-5.79h-1.274z"></path>
<path fill="#FFFFFF" d="M118.080 30.881c-1.698 0-2.277-0.54-2.277-1.891 0-1.274 0.579-1.853 2.277-1.853 0.695 0 1.312 0.116 1.776 0.27l0.154-1.119c-0.502-0.154-1.235-0.309-1.969-0.309-2.586 0-3.706 1.235-3.706 3.011 0 1.891 1.197 3.011 3.59 3.011 0.733 0 1.505-0.193 2.084-0.463l-0.193-1.004c-0.463 0.193-1.081 0.347-1.737 0.347z"></path>
<path fill="#FFFFFF" d="M127.575 29.414h3.358v-0.965h-3.358v-1.235h3.937v-1.119h-5.327v5.79h5.481l0.039-1.119h-4.13z"></path>
<path fill="#FFFFFF" d="M147.030 27.754c0-0.309 0.309-0.656 1.428-0.656 0.656 0 1.351 0.116 2.084 0.347l0.193-1.081c-0.656-0.232-1.505-0.347-2.277-0.347-2.007 0-2.741 0.926-2.741 1.853 0 2.162 3.937 1.39 3.937 2.355 0 0.386-0.463 0.695-1.467 0.695-0.849 0-1.621-0.193-2.355-0.579l-0.154 1.158c0.695 0.309 1.544 0.502 2.509 0.502 1.776 0 2.856-0.811 2.856-1.93-0.039-2.2-4.014-1.351-4.014-2.316z"></path>
<path fill="#FFFFFF" d="M156.68 26.094l-0.039 1.158h2.316v4.632h1.428v-4.632h2.355l-0.039-1.158z"></path>
<path fill="#FFFFFF" d="M173.742 29.298c0 1.042-0.579 1.544-1.814 1.544-1.274 0-1.853-0.502-1.853-1.544v-3.204h-1.39v3.204c0 1.853 1.158 2.702 3.242 2.702s3.204-0.849 3.204-2.702v-3.204h-1.39v3.204z"></path>
<path fill="#FFFFFF" d="M184.782 26.094h-3.088v5.79h3.088c2.239 0 3.474-0.965 3.474-2.895 0-1.737-1.004-2.895-3.474-2.895zM184.704 30.726h-1.621v-3.474h1.621c1.505 0 2.084 0.54 2.084 1.737 0 1.274-0.618 1.737-2.084 1.737z"></path>
<path fill="#FFFFFF" d="M194.702 26.094h1.428v5.79h-1.428v-5.79z"></path>
<path fill="#FFFFFF" d="M206.051 26.017c-2.548 0-3.551 1.197-3.551 3.011s1.004 3.011 3.551 3.011c2.548 0 3.513-1.235 3.513-3.011s-1.004-3.011-3.513-3.011zM206.051 30.881c-1.505 0-2.084-0.579-2.084-1.891s0.579-1.853 2.084-1.853c1.505 0 2.046 0.579 2.046 1.853s-0.54 1.891-2.046 1.891z"></path>
<path fill="#FFFFFF" d="M225.39 26.094h-1.39v5.79h5.095l0.039-1.158h-3.744z"></path>
<path fill="#FFFFFF" d="M237.896 26.094l-3.088 5.79h1.505l0.579-1.158h3.59l0.579 1.158h1.583l-3.127-5.79h-1.621zM237.394 29.684l1.042-2.084 0.27-0.579h0.039l0.27 0.579 1.004 2.084h-2.625z"></path>
<path fill="#FFFFFF" d="M253.259 28.873v0c0.579-0.193 1.004-0.579 1.004-1.274 0-0.888-0.772-1.505-2.393-1.505h-3.281v5.79h3.435c1.814 0 2.548-0.656 2.548-1.698 0-0.618-0.425-1.119-1.312-1.312zM249.94 27.175h1.891c0.772 0 1.119 0.232 1.119 0.695 0 0.425-0.347 0.656-1.004 0.656h-2.007v-1.351zM252.024 30.881h-2.084v-1.467h2.084c0.811 0 1.197 0.27 1.197 0.695 0 0.54-0.425 0.772-1.197 0.772z"></path>
</svg>
